<svg xmlns="http://www.w3.org/2000/svg" fill="none" viewBox="0 0 1560 1560">
  <circle cx="780" cy="780" r="780" fill="#A30034"/>
  <circle cx="780" cy="780" r="684" stroke="#F9F9F8" stroke-width="20"/>
  <path fill="#F9F9F8" d="M669 1284c-14 2-32 1-39 0l-14 54a78 78 0 0 1-50 15v-10c28-137 38-299 40-363 4-98 2-210 0-254-3 1-5-2-6-3-25 14-68 35-87 44-45 18-68-2-74-14-12-10-17-53-18-73-5-27-13-37-16-39-18-20-31-32-36-35-36-26-15-60 0-75 19-23 23-36 23-40 2-25-3-56-6-68-2-18-1-28 0-31 7-31 26-44 34-47 60-18 73-26 72-27 23-15 31-42 32-54 4-26 18-43 25-48 11-9 30-9 37-7 22 4 40 23 47 31 13 13 27 23 33 26 39-10 58-9 63-7 28 2 46 34 51 50 4 20 25 34 35 39 34 7 61 33 70 45 25 31 10 80 0 102-4 19-5 30-4 33h4c15-34 21-64 22-76 10-59 27-94 34-104 16-26 43-37 54-39 21-12 43-14 51-13 47 1 81 35 92 52 18 24 28 91 31 122 5 24 10 35 11 37 65 87 11 157-24 182-5 41-14 64-18 70-75 101-220 42-282 0-174 228-179 405-187 525Z"/>
  <path stroke="#F9F9F8" d="M1045 296h1m0 0c47 1 81 35 92 52 18 24 28 91 31 122 5 24 10 35 11 37 65 87 11 157-24 182-5 41-14 64-18 70-75 101-220 42-282 0-174 228-179 405-187 525-14 2-32 1-39 0l-14 54a78 78 0 0 1-50 15v-10c28-137 38-299 40-363 4-98 2-210 0-254-3 1-5-2-6-3-25 14-68 35-87 44-45 18-68-2-74-14-12-10-17-53-18-73-5-27-13-37-16-39-18-20-31-32-36-35-36-26-15-60 0-75 19-23 23-36 23-40 2-25-3-56-6-68-2-18-1-28 0-31 7-31 26-44 34-47 60-18 73-26 72-27 23-15 31-42 32-54 4-26 18-43 25-48 11-9 30-9 37-7 22 4 40 23 47 31 13 13 27 23 33 26 39-10 58-9 63-7 28 2 46 34 51 50 4 20 25 34 35 39 34 7 61 33 70 45 25 31 10 80 0 102-4 19-5 30-4 33h4c15-34 21-64 22-76 10-59 27-94 34-104 16-26 43-37 54-39 21-12 43-14 51-13Z"/>
  <path fill="#A30034" stroke="#F9F9F8" d="M650 1124c1-195-8-341-13-391 57 13 115-15 144-26 37-11 52-26 55-33l3 1c-5 37-3 62-2 70a857 857 0 0 0-149 252c-27 80-34 118-34 127h-4Z"/>
</svg>