<svg xmlns="http://www.w3.org/2000/svg" fill="none" viewBox="0 0 24 24">
  <circle cx="12" cy="12" r="12" fill="#A30034"/>
  <circle cx="12" cy="12" r="10.18" stroke="#F9F9F8"/>
  <path fill="#F9F9F8" d="M10.7 17.84a1.6 1.6 0 0 1-.44 0c-.1.32-.15.55-.17.62a.9.9 0 0 1-.57.18v-.1c.32-1.6.44-3.47.46-4.22.04-1.14.02-2.44 0-2.94-.04 0-.06-.02-.07-.04-.29.16-.79.4-1 .51-.53.2-.8-.02-.87-.16-.14-.12-.2-.61-.2-.84-.06-.32-.15-.44-.19-.46a3.53 3.53 0 0 0-.41-.4c-.43-.3-.18-.7 0-.87.2-.27.26-.43.26-.47.02-.29-.04-.64-.07-.78a1.1 1.1 0 0 1 0-.37c.08-.35.3-.5.4-.54.68-.2.83-.3.82-.32a.9.9 0 0 0 .38-.62c.04-.3.21-.5.29-.56.13-.1.34-.1.43-.08a1 1 0 0 1 .54.36c.15.16.32.27.39.3.44-.1.67-.1.73-.08.32.02.52.4.58.58.05.23.3.4.41.45.4.09.7.39.81.52.29.36.12.94 0 1.18-.05.23-.05.36-.05.4h.05c.18-.4.25-.76.26-.89.12-.68.31-1.09.4-1.2a1 1 0 0 1 .62-.46c.25-.14.5-.16.58-.15.55.01.95.4 1.07.6.22.28.34 1.06.37 1.41.06.29.1.42.12.44.75 1.01.13 1.82-.27 2.1-.06.49-.16.75-.21.82-.87 1.17-2.55.49-3.28 0-2.01 2.64-2.06 4.69-2.16 6.08Z"/>
  <path stroke="#F9F9F8" d="M15.07 6.39c.55.01.95.4 1.07.6.22.28.34 1.06.37 1.41.06.29.1.42.12.44.75 1.01.13 1.82-.27 2.1-.06.49-.16.75-.21.82-.87 1.17-2.55.49-3.28 0-2.01 2.64-2.06 4.69-2.16 6.08-.16.03-.37.01-.45 0-.1.32-.15.55-.17.62a.9.9 0 0 1-.57.18v-.1c.32-1.6.44-3.47.46-4.22.04-1.14.02-2.44 0-2.94-.04 0-.06-.02-.07-.04-.29.16-.79.4-1 .51-.53.2-.8-.02-.87-.16-.14-.12-.2-.61-.2-.84-.06-.32-.15-.44-.19-.46a3.53 3.53 0 0 0-.41-.4c-.43-.3-.18-.7 0-.87.2-.27.26-.43.26-.47.02-.29-.04-.64-.07-.78a1.1 1.1 0 0 1 0-.37c.08-.35.3-.5.4-.54.68-.2.83-.3.82-.32a.9.9 0 0 0 .38-.62c.04-.3.21-.5.29-.56.13-.1.34-.1.43-.08a1 1 0 0 1 .54.36c.15.16.32.27.39.3.44-.1.67-.1.73-.08.32.02.52.4.58.58.05.23.3.4.41.45.4.09.7.39.81.52.29.36.12.94 0 1.18-.05.23-.05.36-.05.4h.05c.18-.4.25-.76.26-.89.12-.68.31-1.09.4-1.2a1 1 0 0 1 .62-.46c.25-.14.5-.16.58-.15Z"/>
  <path fill="#A30034" stroke="#F9F9F8" d="M10.5 15.99c0-2.26-.1-3.95-.16-4.53.66.15 1.33-.17 1.67-.3.43-.13.6-.3.64-.38h.03c-.05.44-.04.73-.02.82a9.93 9.93 0 0 0-1.73 2.91c-.3.93-.4 1.38-.4 1.48h-.04Z"/>
</svg>