<svg xmlns="http://www.w3.org/2000/svg" fill="none" viewBox="0 0 1900 715">
    <title>OrganiCSS</title>
  <circle cx="357.5" cy="357.5" r="357.5" fill="#A30034"/>
  <path stroke="#F9F9F8" stroke-width="10" d="M670.62 357.5c0 172.9-140.18 313.08-313.09 313.08-172.9 0-313.08-140.17-313.08-313.08S184.62 44.4 357.53 44.4s313.09 140.2 313.09 313.1Z"/>
  <path fill="#F9F9F8" d="M312.02 563.85c-5.66.89-12.82.37-15.7 0a355.87 355.87 0 0 0-5.96 21.9c-7.25 5.67-16.43 6.5-20.11 6.2v-3.76c11.14-56.1 15.4-122.48 16.13-148.66 1.6-40.35.67-86.13 0-103.97-1.24.18-2.13-.81-2.43-1.33-10.08 5.49-27.77 14.23-35.36 17.92-18.39 7.26-28-.81-30.5-5.75-4.77-4.07-6.85-21.46-7.3-29.64-1.94-11.15-5.08-15.41-6.4-16.15-7.43-8.32-12.82-13.05-14.59-14.38-15.03-10.44-6.26-24.7 0-30.53 7.43-9.38 9.28-14.97 9.28-16.59.71-10.09-1.32-22.64-2.43-27.65-.88-7.26-.37-11.58 0-12.83 2.66-12.57 10.39-17.92 13.93-19.03 24.22-7.43 29.54-10.61 29.17-11.28 9.55-6.2 12.82-17.18 13.26-21.9 1.41-10.8 7.37-17.77 10.17-19.9 4.42-3.55 12-3.4 15.25-2.88 8.66 1.94 16.27 9.36 19 12.83a58.57 58.57 0 0 0 13.48 10.62c15.74-3.9 23.8-3.54 25.86-2.88 11.32.7 18.42 14.01 20.55 20.57 1.77 7.97 10.32 13.94 14.37 15.93 13.97 3 24.82 13.5 28.5 18.36 10.09 12.57 4.2 32.96 0 41.59-1.76 8.14-1.9 12.53-1.76 13.71h1.77c6.36-13.8 8.7-26.4 9.06-30.97 4.24-24.24 11.05-38.56 13.92-42.69 6.55-10.8 17.32-15.12 21.88-15.93 8.84-5.13 17.5-5.82 20.72-5.52 19.36.6 33.15 14.54 37.63 21.45 7.6 9.73 11.71 37.24 12.82 49.77 2.12 10.1 3.83 14.53 4.42 15.49 26.34 35.57 4.5 64.22-9.73 74.1-1.94 17.17-5.67 26.48-7.29 28.98-30.76 41.24-89.73 17.19-115.37 0-70.94 93.14-72.7 165.47-76.24 214.8Z"/>
  <path stroke="#F9F9F8" d="M465.62 159.25h.16m0 0c19.36.61 33.15 14.55 37.63 21.46 7.6 9.73 11.71 37.24 12.82 49.77 2.12 10.1 3.83 14.53 4.42 15.49 26.34 35.57 4.5 64.22-9.73 74.1-1.94 17.17-5.67 26.48-7.29 28.98-30.76 41.24-89.73 17.19-115.37 0-70.94 93.14-72.7 165.47-76.24 214.8-5.66.89-12.82.37-15.7 0a355.87 355.87 0 0 0-5.96 21.9c-7.25 5.67-16.43 6.5-20.11 6.2v-3.76c11.14-56.1 15.4-122.48 16.13-148.66 1.6-40.35.67-86.13 0-103.97-1.24.18-2.13-.81-2.43-1.33-10.08 5.49-27.77 14.23-35.36 17.92-18.39 7.26-28-.81-30.5-5.75-4.77-4.07-6.85-21.46-7.3-29.64-1.94-11.15-5.08-15.41-6.4-16.15-7.43-8.32-12.82-13.05-14.59-14.38-15.03-10.44-6.26-24.7 0-30.53 7.43-9.38 9.28-14.97 9.28-16.59.71-10.09-1.32-22.64-2.43-27.65-.88-7.26-.37-11.58 0-12.83 2.66-12.57 10.39-17.92 13.93-19.03 24.22-7.43 29.54-10.61 29.17-11.28 9.55-6.2 12.82-17.18 13.26-21.9 1.41-10.8 7.37-17.77 10.17-19.9 4.42-3.55 12-3.4 15.25-2.88 8.66 1.94 16.27 9.36 19 12.83a58.57 58.57 0 0 0 13.48 10.62c15.74-3.9 23.8-3.54 25.86-2.88 11.32.7 18.42 14.01 20.55 20.57 1.77 7.97 10.32 13.94 14.37 15.93 13.97 3 24.82 13.5 28.5 18.36 10.09 12.57 4.2 32.96 0 41.59-1.76 8.14-1.9 12.53-1.76 13.71h1.77c6.36-13.8 8.7-26.4 9.06-30.97 4.24-24.24 11.05-38.56 13.92-42.69 6.55-10.8 17.32-15.12 21.88-15.93 8.84-5.13 17.5-5.82 20.72-5.52Z"/>
  <path fill="#A30034" stroke="#F9F9F8" d="M304.39 498.37c.35-80-3.17-139.66-5.3-159.94 23.33 5.13 46.85-6.2 58.78-10.62 15.2-4.6 21.36-10.91 22.54-13.5l1.1.23c-1.76 15.22-1.32 25.51-.88 28.76-30.23 32.56-53.11 82.14-60.77 102.86-10.79 32.92-13.78 48.52-13.93 52.2h-1.54Z"/>
  <path fill="#A30034" d="M856.5 444c-16 0-29.67-3.25-41-9.75-11.33-6.5-20-16.33-26-29.5-6-13.17-9-29.67-9-49.5 0-20 3-36.5 9-49.5 6-13.17 14.67-23 26-29.5s25-9.75 41-9.75 29.67 3.25 41 9.75c11.33 6.5 19.92 16.33 25.75 29.5 6 13 9 29.5 9 49.5 0 19.83-3 36.33-9 49.5-5.83 13.17-14.42 23-25.75 29.5s-25 9.75-41 9.75Zm0-19.75c8.17 0 15.42-1.25 21.75-3.75 6.5-2.67 12-6.67 16.5-12s7.92-12.08 10.25-20.25c2.5-8.17 3.75-17.83 3.75-29v-8c0-11.17-1.25-20.83-3.75-29-2.33-8.17-5.75-14.92-10.25-20.25s-10-9.25-16.5-11.75c-6.33-2.67-13.58-4-21.75-4s-15.5 1.33-22 4c-6.5 2.5-12 6.42-16.5 11.75s-7.92 12.08-10.25 20.25-3.5 17.83-3.5 29v8c0 11.17 1.17 20.83 3.5 29 2.33 8.17 5.75 14.92 10.25 20.25s10 9.33 16.5 12c6.5 2.5 13.83 3.75 22 3.75ZM959.8 441V309.5h17l1.75 20.25h1.5a44.76 44.76 0 0 1 5.5-11.75 25.83 25.83 0 0 1 8.75-8.25c3.5-2.17 7.67-3.25 12.5-3.25 2.17 0 4.08.17 5.75.5 1.67.33 3 .67 4 1v20.5h-8c-4.5 0-8.5.83-12 2.5a22.24 22.24 0 0 0-8.75 7.5 36.56 36.56 0 0 0-5.5 11.75 66.21 66.21 0 0 0-1.75 16V441H959.8Zm95.72 46a36.48 36.48 0 0 1-17-4c-5-2.67-9-6.5-12-11.5s-4.5-10.67-4.5-17c0-7.17 1.83-13.25 5.5-18.25a35.2 35.2 0 0 1 14.25-11.5c-4.17-2-7.42-4.83-9.75-8.5a21.45 21.45 0 0 1-3.5-11.75c0-5.83 1.91-10.67 5.75-14.5 4-4 8.91-6.75 14.75-8.25a38 38 0 0 1-12.75-14 42.81 42.81 0 0 1-4.25-19c0-8.17 1.75-15.42 5.25-21.75s8.75-11.33 15.75-15c7.16-3.67 16-5.5 26.5-5.5 4.83 0 9.25.42 13.25 1.25 4 .67 7.66 1.75 11 3.25a25.28 25.28 0 0 0 11.25-9.5 33.33 33.33 0 0 0 5-13.5h20a36.5 36.5 0 0 1-3.25 14.25c-2 4.33-4.75 8-8.25 11a28.9 28.9 0 0 1-12.75 5.75c4 4 6.91 8.5 8.75 13.5 2 5 3 10.33 3 16 0 8.17-1.75 15.42-5.25 21.75s-8.75 11.33-15.75 15c-6.84 3.67-15.5 5.5-26 5.5h-17.25c-4.17 0-7.59.92-10.25 2.75-2.5 1.83-3.75 4.75-3.75 8.75 0 3.67 1.41 6.5 4.25 8.5 2.83 2 6.41 3 10.75 3h42.75c9.66 0 17.33 3.33 23 10 5.83 6.5 8.75 14.75 8.75 24.75 0 7.17-1.67 13.67-5 19.5a34.15 34.15 0 0 1-13.75 13.75c-6 3.5-13.09 5.25-21.25 5.25h-43.25Zm5.75-16h36.5c3.83 0 7.25-.83 10.25-2.5s5.33-4 7-7c1.83-3 2.75-6.25 2.75-9.75 0-6-1.59-10.75-4.75-14.25a15.44 15.44 0 0 0-12.25-5.5h-39.5a16.9 16.9 0 0 0-13 5.75c-3.5 3.67-5.25 8.33-5.25 14 0 5.83 1.66 10.5 5 14 3.5 3.5 7.91 5.25 13.25 5.25Zm18.5-96c9 0 15.66-2.25 20-6.75 4.5-4.67 6.75-11.17 6.75-19.5 0-8.5-2.25-15-6.75-19.5-4.34-4.67-11-7-20-7s-15.75 2.33-20.25 7c-4.5 4.5-6.75 11-6.75 19.5 0 5.33 1 10 3 14s5 7.08 9 9.25c4 2 9 3 15 3Zm107.05 69c-4.67 0-9.25-.67-13.75-2a36 36 0 0 1-12.25-5.75 30.95 30.95 0 0 1-8.5-11.25c-2-4.67-3-10.33-3-17 0-8.17 1.75-15 5.25-20.5 3.5-5.67 8.5-10.25 15-13.75 6.67-3.67 14.75-6.25 24.25-7.75 9.5-1.67 20.33-2.5 32.5-2.5v-16.75c0-4.83-.75-8.92-2.25-12.25a15.72 15.72 0 0 0-7.75-8c-3.67-1.83-8.75-2.75-15.25-2.75-6.83 0-12.17 1.08-16 3.25-3.67 2-6.25 4.67-7.75 8-1.33 3.17-2 6.67-2 10.5v3.25h-20c-.17-.83-.25-1.67-.25-2.5v-3c0-8.5 2-15.42 6-20.75 4-5.5 9.58-9.5 16.75-12 7.17-2.67 15.42-4 24.75-4 9.5 0 17.58 1.42 24.25 4.25 6.67 2.83 11.75 7.17 15.25 13 3.5 5.67 5.25 12.92 5.25 21.75v72.25c0 3 .67 5.17 2 6.5s3 2 5 2h9V440a47.3 47.3 0 0 1-7.75 2.5 30.16 30.16 0 0 1-9 1.25c-4.17 0-7.58-.92-10.25-2.75-2.5-1.67-4.42-4-5.75-7s-2.25-6.33-2.75-10h-1.5c-2.67 4-6 7.5-10 10.5a43.7 43.7 0 0 1-13.25 7 49.62 49.62 0 0 1-16.25 2.5Zm5.5-17.75c4.33 0 8.5-.75 12.5-2.25a36.88 36.88 0 0 0 11-6.75c3.17-3 5.67-6.67 7.5-11 2-4.33 3-9.25 3-14.75V379c-12.5 0-22.83.92-31 2.75-8 1.83-14 4.75-18 8.75s-6 9.17-6 15.5c0 4.5.83 8.25 2.5 11.25s4.08 5.25 7.25 6.75 6.92 2.25 11.25 2.25Zm87.79 14.75V309.5h17l1.75 18.75h1.5c3-5.17 6.42-9.33 10.25-12.5 4-3.17 8.33-5.5 13-7a51.16 51.16 0 0 1 15.25-2.25c7.33 0 13.75 1.33 19.25 4 5.5 2.5 9.75 6.67 12.75 12.5s4.5 13.67 4.5 23.5V441h-21v-90.75c0-4.67-.5-8.58-1.5-11.75s-2.5-5.67-4.5-7.5a15 15 0 0 0-7.25-4.25c-2.83-1-6-1.5-9.5-1.5-5.5 0-10.58 1.5-15.25 4.5s-8.42 7.33-11.25 13-4.25 12.58-4.25 20.75V441h-20.75Zm125.49-156.75v-24h20.75v24h-20.75Zm0 156.75V309.5h20.75V441h-20.75Zm120.5 3c-16 0-29.42-3.17-40.25-9.5-10.67-6.5-18.75-16.25-24.25-29.25-5.34-13.17-8-29.83-8-50 0-30 6.33-52.25 19-66.75 12.83-14.67 31.08-22 54.75-22 13.33 0 25 2.42 35 7.25a50.96 50.96 0 0 1 23.25 21.5c5.5 9.5 8.25 21.67 8.25 36.5h-23c0-10.17-1.75-18.58-5.25-25.25a32.76 32.76 0 0 0-15-15c-6.5-3.5-14.42-5.25-23.75-5.25-10.34 0-19.25 2.33-26.75 7-7.5 4.5-13.17 11.58-17 21.25-3.84 9.67-5.75 22.17-5.75 37.5v7.75c0 15 1.91 27.25 5.75 36.75 3.83 9.5 9.41 16.5 16.75 21 7.33 4.5 16.25 6.75 26.75 6.75 9.33 0 17.33-1.67 24-5a33.8 33.8 0 0 0 15.5-15c3.5-6.67 5.25-15.08 5.25-25.25h22.25c0 14.83-2.84 27.08-8.5 36.75a52.17 52.17 0 0 1-23.75 21.5c-10.17 4.5-21.92 6.75-35.25 6.75Zm152.36 0c-8.5 0-16.59-.92-24.25-2.75a56.64 56.64 0 0 1-20.25-8.5 42.77 42.77 0 0 1-13.5-15.75c-3.34-6.5-5-14.67-5-24.5v-4.75h23c0 .67-.09 1.5-.25 2.5V393c0 7 1.58 12.83 4.75 17.5 3.33 4.67 7.91 8.17 13.75 10.5 6 2.17 13.08 3.25 21.25 3.25 3.66 0 7.41-.25 11.25-.75a53.82 53.82 0 0 0 10.75-3c3.5-1.5 6.58-3.33 9.25-5.5a22.74 22.74 0 0 0 6.25-8c1.5-3.17 2.25-7 2.25-11.5 0-5.5-1.42-10.08-4.25-13.75-2.67-3.83-6.42-7-11.25-9.5a91.45 91.45 0 0 0-15.75-6.5 398.1 398.1 0 0 0-18.25-5.75 207.38 207.38 0 0 1-18-6.25 75.7 75.7 0 0 1-15.75-9 39.38 39.38 0 0 1-11.25-13.25c-2.84-5.33-4.25-11.75-4.25-19.25 0-7.33 1.33-13.83 4-19.5a38.94 38.94 0 0 1 12-14.5c5.16-3.83 11.41-6.75 18.75-8.75 7.5-2 15.91-3 25.25-3 8.33 0 15.91.92 22.75 2.75 7 1.83 13.08 4.67 18.25 8.5a37.75 37.75 0 0 1 12.25 14.75c3 6 4.5 13.25 4.5 21.75v3.25h-22.5v-4c0-5.67-1.42-10.5-4.25-14.5-2.84-4.17-6.84-7.33-12-9.5-5.17-2.17-11.25-3.25-18.25-3.25-8.17 0-15 .92-20.5 2.75s-9.75 4.58-12.75 8.25c-2.84 3.5-4.25 7.83-4.25 13 0 5.33 1.41 9.75 4.25 13.25a33.35 33.35 0 0 0 11.25 8.75c4.66 2.33 9.91 4.42 15.75 6.25 5.83 1.83 11.83 3.75 18 5.75 6.33 1.83 12.41 4 18.25 6.5a63.58 63.58 0 0 1 15.75 9c4.83 3.5 8.58 8 11.25 13.5 2.83 5.33 4.25 11.75 4.25 19.25 0 12.17-2.67 22.08-8 29.75-5.34 7.5-12.75 13-22.25 16.5-9.34 3.5-20.09 5.25-32.25 5.25Zm147.46 0c-8.5 0-16.59-.92-24.25-2.75a56.64 56.64 0 0 1-20.25-8.5 42.77 42.77 0 0 1-13.5-15.75c-3.34-6.5-5-14.67-5-24.5v-4.75h23c0 .67-.09 1.5-.25 2.5V393c0 7 1.58 12.83 4.75 17.5 3.33 4.67 7.91 8.17 13.75 10.5 6 2.17 13.08 3.25 21.25 3.25 3.66 0 7.41-.25 11.25-.75a53.82 53.82 0 0 0 10.75-3c3.5-1.5 6.58-3.33 9.25-5.5a22.74 22.74 0 0 0 6.25-8c1.5-3.17 2.25-7 2.25-11.5 0-5.5-1.42-10.08-4.25-13.75-2.67-3.83-6.42-7-11.25-9.5a91.45 91.45 0 0 0-15.75-6.5 398.1 398.1 0 0 0-18.25-5.75 207.38 207.38 0 0 1-18-6.25 75.7 75.7 0 0 1-15.75-9 39.38 39.38 0 0 1-11.25-13.25c-2.84-5.33-4.25-11.75-4.25-19.25 0-7.33 1.33-13.83 4-19.5a38.94 38.94 0 0 1 12-14.5c5.16-3.83 11.41-6.75 18.75-8.75 7.5-2 15.91-3 25.25-3 8.33 0 15.91.92 22.75 2.75 7 1.83 13.08 4.67 18.25 8.5a37.75 37.75 0 0 1 12.25 14.75c3 6 4.5 13.25 4.5 21.75v3.25h-22.5v-4c0-5.67-1.42-10.5-4.25-14.5-2.84-4.17-6.84-7.33-12-9.5-5.17-2.17-11.25-3.25-18.25-3.25-8.17 0-15 .92-20.5 2.75s-9.75 4.58-12.75 8.25c-2.84 3.5-4.25 7.83-4.25 13 0 5.33 1.41 9.75 4.25 13.25a33.35 33.35 0 0 0 11.25 8.75c4.66 2.33 9.91 4.42 15.75 6.25 5.83 1.83 11.83 3.75 18 5.75 6.33 1.83 12.41 4 18.25 6.5a63.58 63.58 0 0 1 15.75 9c4.83 3.5 8.58 8 11.25 13.5 2.83 5.33 4.25 11.75 4.25 19.25 0 12.17-2.67 22.08-8 29.75-5.34 7.5-12.75 13-22.25 16.5-9.34 3.5-20.09 5.25-32.25 5.25Z"/>
</svg>